<svg height="451pt" viewBox="-1 0 451 451.93016" width="451pt" xmlns="http://www.w3.org/2000/svg"><path d="m65.289062 22.355469s6.8125 25.316406 26.441407 26.492187c0 0-26.199219 9.046875-26.640625 28.402344 0 0-5.160156-27.144531-25.851563-28.117188 0 0 24.101563-3.652343 26.050781-26.777343zm0 0" fill="#d7e057"/><path d="m65.085938 80.253906c-1.425782 0-2.667969-1.015625-2.941407-2.4375-.050781-.25-4.988281-24.835937-23.046875-25.6875-1.539062-.070312-2.773437-1.296875-2.851562-2.839844-.082032-1.539062 1.019531-2.890624 2.546875-3.121093.878906-.136719 21.785156-3.632813 23.507812-24.0625.121094-1.453125 1.265625-2.601563 2.714844-2.734375 1.441406-.144532 2.789063.796875 3.167969 2.199218.0625.234376 6.515625 23.253907 23.726562 24.285157 1.425782.082031 2.59375 1.164062 2.789063 2.582031.199219 1.417969-.636719 2.777344-1.984375 3.246094-.242188.082031-24.238282 8.621094-24.628906 25.636718-.03125 1.535157-1.21875 2.792969-2.75 2.921876-.082032.007812-.167969.011718-.25.011718zm-15.480469-31.460937c7.757812 3.9375 12.460937 11.488281 15.171875 17.75 4.054687-8.039063 11.886718-13.574219 17.898437-16.851563-8.269531-3.6875-13.566406-11.304687-16.667969-17.445312-3.585937 8.71875-10.542968 13.734375-16.402343 16.546875zm0 0" fill="#3a312a"/><path d="m21.890625 56.316406s4.824219 17.90625 18.703125 18.738282c0 0-18.53125 6.402343-18.84375 20.089843 0 0-3.648438-19.199219-18.28125-19.886719-.003906 0 17.042969-2.582031 18.421875-18.941406zm0 0" fill="#d7e057"/><path d="m21.746094 98.144531c-1.425782 0-2.671875-1.011719-2.941406-2.4375-.035157-.164062-3.410157-16.886719-15.480469-17.453125-1.539063-.070312-2.773438-1.300781-2.851563-2.839844-.082031-1.542968 1.019532-2.890624 2.542969-3.125.59375-.09375 14.730469-2.484374 15.886719-16.226562.121094-1.449219 1.269531-2.605469 2.71875-2.734375 1.453125-.125 2.785156.796875 3.164062 2.203125.042969.160156 4.457032 15.839844 15.984375 16.53125 1.429688.082031 2.601563 1.167969 2.792969 2.585938.195312 1.417968-.636719 2.777343-1.992188 3.242187-.160156.058594-16.5625 5.90625-16.824218 17.324219-.035156 1.539062-1.222656 2.796875-2.75 2.921875-.082032.003906-.167969.007812-.25.007812zm-9.035156-23.054687c4.210937 2.664062 7.042968 6.789062 8.890624 10.558594 2.753907-4.464844 7.03125-7.746094 10.730469-9.945313-4.574219-2.539063-7.769531-6.699219-9.882812-10.449219-2.34375 4.578125-6.027344 7.753906-9.738281 9.835938zm0 0" fill="#3a312a"/><path d="m21.890625 3s4.824219 17.90625 18.703125 18.738281c0 0-18.53125 6.402344-18.84375 20.09375 0 0-3.648438-19.203125-18.28125-19.890625-.003906 0 17.042969-2.582031 18.421875-18.941406zm0 0" fill="#d7e057"/><path d="m21.746094 44.832031c-1.425782 0-2.671875-1.015625-2.941406-2.441406-.035157-.164063-3.410157-16.882813-15.480469-17.453125-1.542969-.070312-2.773438-1.300781-2.855469-2.839844-.078125-1.539062 1.023438-2.890625 2.546875-3.121094.589844-.09375 14.726563-2.488281 15.882813-16.226562.121093-1.453125 1.269531-2.605469 2.722656-2.734375 1.449218-.144531 2.78125.796875 3.160156 2.203125.042969.15625 4.457031 15.839844 15.988281 16.53125 1.429688.082031 2.597657 1.167969 2.792969 2.585938.195312 1.417968-.640625 2.773437-1.992188 3.242187-.164062.054687-16.566406 5.90625-16.824218 17.324219-.035156 1.535156-1.222656 2.792968-2.753906 2.921875-.078126.003906-.164063.007812-.246094.007812zm-9.035156-23.058593c4.210937 2.667968 7.042968 6.789062 8.890624 10.5625 2.753907-4.46875 7.03125-7.746094 10.730469-9.949219-4.574219-2.539063-7.769531-6.699219-9.882812-10.445313-2.34375 4.574219-6.027344 7.75-9.738281 9.832032zm0 0" fill="#3a312a"/><path d="m445.53125 360.953125c0 48.585937-39.382812 87.972656-87.972656 87.972656-48.585938 0-87.972656-39.386719-87.972656-87.972656 0-36.800781 22.597656-68.304687 54.675781-81.429687v-58.128907h66.578125v58.128907c32.082031 13.125 54.691406 44.625 54.691406 81.429687zm0 0" fill="#fce8cb"/><path d="m357.558594 451.925781c-50.164063 0-90.972656-40.808593-90.972656-90.972656 0-36.421875 21.390624-68.945313 54.675781-83.421875v-56.136719c0-1.65625 1.34375-3 3-3h66.578125c1.65625 0 3 1.34375 3 3v56.136719c33.292968 14.480469 54.691406 47.003906 54.691406 83.421875 0 50.160156-40.808594 90.972656-90.972656 90.972656zm-30.296875-227.53125v55.125c0 1.21875-.734375 2.316407-1.863281 2.777344-32.082032 13.128906-52.8125 44.003906-52.8125 78.652344 0 46.855469 38.117187 84.976562 84.972656 84.976562 46.855468 0 84.972656-38.121093 84.972656-84.976562 0-34.644531-20.734375-65.519531-52.828125-78.652344-1.125-.460937-1.863281-1.558594-1.863281-2.777344v-55.125zm0 0" fill="#3a312a"/><path d="m393.691406 190.300781h-72.265625c-8.585937 0-15.542969 6.960938-15.542969 15.546875 0 8.585938 6.957032 15.546875 15.542969 15.546875h72.265625c8.585938 0 15.546875-6.960937 15.546875-15.546875-.003906-8.585937-6.964843-15.546875-15.546875-15.546875zm0 0" fill="#87796f"/><path d="m393.691406 224.394531h-72.265625c-10.226562 0-18.542969-8.320312-18.542969-18.542969 0-10.226562 8.316407-18.546874 18.542969-18.546874h72.265625c10.226563 0 18.542969 8.320312 18.542969 18.546874 0 10.222657-8.316406 18.542969-18.542969 18.542969zm-72.265625-31.09375c-6.917969 0-12.542969 5.628907-12.542969 12.546875 0 6.917969 5.625 12.542969 12.542969 12.542969h72.265625c6.917969 0 12.542969-5.625 12.542969-12.542969 0-6.917968-5.625-12.546875-12.542969-12.546875zm0 0" fill="#3a312a"/><path d="m346.351562 241.671875h-21.414062c-1.65625 0-3-1.347656-3-3 0-1.65625 1.34375-3 3-3h21.414062c1.65625 0 3 1.34375 3 3s-1.34375 3-3 3zm0 0" fill="#3a312a"/><path d="m362.894531 265.503906h-37.957031c-1.65625 0-3-1.347656-3-3 0-1.65625 1.34375-3 3-3h37.960938c1.65625 0 3 1.34375 3 3-.003907 1.652344-1.347657 3-3.003907 3zm0 0" fill="#3a312a"/><path d="m375.863281 85.609375c0 45.457031-36.847656 82.308594-82.304687 82.308594-45.457032 0-82.304688-36.851563-82.304688-82.308594s36.847656-82.304687 82.304688-82.304687c45.457031 0 82.304687 36.847656 82.304687 82.304687zm0 0" fill="#fae6ca"/><g fill="#3a312a"><path d="m293.558594 170.917969c-47.039063 0-85.304688-38.269531-85.304688-85.304688 0-47.042969 38.265625-85.308593 85.304688-85.308593 47.039062 0 85.304687 38.269531 85.304687 85.308593 0 47.035157-38.265625 85.304688-85.304687 85.304688zm0-164.613281c-43.730469 0-79.304688 35.574218-79.304688 79.304687s35.574219 79.304687 79.304688 79.304687c43.730468 0 79.304687-35.574218 79.304687-79.304687s-35.574219-79.304687-79.304687-79.304687zm0 0"/><path d="m293.558594 38.902344c-1.65625 0-3-1.34375-3-3v-7.105469c0-1.65625 1.34375-3 3-3s3 1.34375 3 3v7.105469c0 1.65625-1.34375 3-3 3zm0 0"/><path d="m323.308594 48.777344c-.625 0-1.253906-.191406-1.792969-.59375-1.328125-.992188-1.597656-2.871094-.609375-4.203125l4.25-5.695313c.992188-1.328125 2.871094-1.597656 4.199219-.609375 1.328125.992188 1.601562 2.871094.613281 4.199219l-4.25 5.695312c-.59375.792969-1.496094 1.207032-2.410156 1.207032zm0 0"/><path d="m341.25 74.488281c-1.292969 0-2.484375-.84375-2.871094-2.144531-.472656-1.589844.429688-3.257812 2.019532-3.730469l6.8125-2.023437c1.578124-.472656 3.257812.433594 3.726562 2.023437.472656 1.585938-.433594 3.257813-2.023438 3.726563l-6.808593 2.023437c-.28125.085938-.570313.125-.855469.125zm0 0"/><path d="m346.929688 108.273438c-.34375 0-.695313-.058594-1.035157-.183594l-6.671875-2.453125c-1.554687-.574219-2.351562-2.296875-1.78125-3.851563.570313-1.554687 2.292969-2.351562 3.851563-1.78125l6.671875 2.449219c1.550781.574219 2.351562 2.296875 1.78125 3.851563-.449219 1.214843-1.597656 1.96875-2.816406 1.96875zm0 0"/><path d="m263.808594 48.777344c-.914063 0-1.816406-.414063-2.40625-1.207032l-4.25-5.695312c-.992188-1.328125-.71875-3.207031.609375-4.199219 1.328125-.988281 3.207031-.71875 4.199219.609375l4.25 5.695313c.988281 1.328125.71875 3.210937-.609376 4.203125-.539062.402344-1.167968.59375-1.792968.59375zm0 0"/><path d="m245.867188 74.488281c-.285157 0-.570313-.039062-.855469-.125l-6.8125-2.023437c-1.589844-.46875-2.492188-2.140625-2.019531-3.726563.46875-1.589843 2.140624-2.5 3.726562-2.023437l6.8125 2.023437c1.589844.472657 2.492188 2.140625 2.019531 3.730469-.386719 1.300781-1.578125 2.144531-2.871093 2.144531zm0 0"/><path d="m240.1875 108.273438c-1.21875 0-2.367188-.753907-2.8125-1.964844-.570312-1.554688.222656-3.28125 1.78125-3.851563l6.667969-2.453125c1.5625-.570312 3.28125.226563 3.851562 1.78125.570313 1.554688-.226562 3.28125-1.78125 3.851563l-6.667969 2.453125c-.34375.125-.695312.183594-1.039062.183594zm0 0"/></g><path d="m326.828125 84.523438c0 8.445312-3.140625 16.128906-8.328125 22.003906-4.886719 5.527344-8.003906 12.347656-9.289062 19.585937h-31.3125c-1.289063-7.238281-4.386719-14.058593-9.292969-19.605469-5.167969-5.855468-8.328125-13.554687-8.328125-21.984374 0-17.496094 14.019531-32.296876 31.476562-33.222657 19.183594-1.003906 35.074219 14.257813 35.074219 33.222657zm0 0" fill="#d6df58"/><path d="m309.210938 129.113281h-31.3125c-1.457032 0-2.703126-1.042969-2.957032-2.476562-1.226562-6.90625-4.195312-13.179688-8.585937-18.144531-5.851563-6.628907-9.078125-15.140626-9.078125-23.96875 0-18.964844 15.394531-35.214844 34.316406-36.21875 10.046875-.519532 19.632812 2.992187 26.925781 9.914062s11.304688 16.261719 11.304688 26.304688c0 8.84375-3.222657 17.363281-9.078125 23.988281-4.390625 4.972656-7.359375 11.242187-8.585938 18.125-.25 1.433593-1.496094 2.476562-2.949218 2.476562zm-28.871094-6h26.425781c1.648437-7.003906 4.898437-13.382812 9.488281-18.574219 4.882813-5.527343 7.574219-12.636718 7.574219-20.015624 0-8.382813-3.351563-16.175782-9.4375-21.957032-6.085937-5.773437-14.074219-8.699218-22.480469-8.273437-15.785156.839843-28.632812 14.398437-28.632812 30.226562 0 7.363281 2.691406 14.464844 7.574218 19.996094 4.589844 5.191406 7.839844 11.578125 9.488282 18.597656zm0 0" fill="#3a312a"/><path d="m278.015625 126.121094h31.085937c3.363282 0 6.085938 2.722656 6.085938 6.082031v4.136719c0 3.359375-2.722656 6.082031-6.085938 6.082031h-31.085937c-3.359375 0-6.085937-2.722656-6.085937-6.082031v-4.136719c0-3.359375 2.726562-6.082031 6.085937-6.082031zm0 0" fill="#87796f"/><path d="m309.101562 145.425781h-31.085937c-5.011719 0-9.085937-4.074219-9.085937-9.085937v-4.132813c0-5.011719 4.074218-9.085937 9.085937-9.085937h31.085937c5.011719 0 9.085938 4.074218 9.085938 9.085937v4.132813c0 5.007812-4.074219 9.085937-9.085938 9.085937zm-31.085937-16.304687c-1.703125 0-3.085937 1.382812-3.085937 3.082031v4.136719c0 1.699218 1.382812 3.082031 3.085937 3.082031h31.085937c1.703126 0 3.085938-1.382813 3.085938-3.082031v-4.136719c0-1.699219-1.382812-3.082031-3.085938-3.082031zm0 0" fill="#3a312a"/><path d="m19.347656 182.902344h186.207032v150.011718h-186.207032zm0 0" fill="#87796f"/><path d="m205.558594 335.917969h-186.210938c-1.65625 0-3-1.347657-3-3v-150.015625c0-1.65625 1.34375-3 3-3h186.210938c1.65625 0 3 1.34375 3 3v150.015625c0 1.652343-1.34375 3-3 3zm-183.210938-6h180.210938v-144.015625h-180.210938zm0 0" fill="#3a312a"/><path d="m223.90625 403.855469v45.070312h-220.441406v-45.070312c0-27.472657 22.265625-49.738281 49.738281-49.738281h32.878906v-21.46875h.558594c9.050781 6.375 18.289063 10.128906 27.042969 10.128906 9.128906 0 18.53125-3.71875 27.621094-10.015625v21.355469h32.863281c27.472656 0 49.738281 22.265624 49.738281 49.738281zm0 0" fill="#fce8cb"/><path d="m223.90625 451.925781h-220.441406c-1.65625 0-3-1.34375-3-3v-45.070312c0-29.082031 23.660156-52.738281 52.738281-52.738281h29.878906v-18.46875c0-1.65625 1.34375-3 3-3h.558594c.617187 0 1.222656.191406 1.730469.546874 9.027344 6.359376 17.542968 9.582032 25.3125 9.582032 8.117187 0 16.832031-3.191406 25.910156-9.484375.921875-.636719 2.113281-.707031 3.101562-.191407.988282.515626 1.609376 1.539063 1.609376 2.65625v18.359376h29.859374c29.082032 0 52.738282 23.65625 52.738282 52.738281v45.070312c.003906 1.660157-1.339844 3-2.996094 3zm-217.441406-6h214.441406v-42.070312c0-25.773438-20.96875-46.738281-46.738281-46.738281h-32.863281c-1.65625 0-3-1.34375-3-3v-15.867188c-8.460938 5-16.71875 7.527344-24.621094 7.527344-7.773438 0-16.03125-2.664063-24.601563-7.925782v16.265626c0 1.65625-1.339843 3-3 3h-32.878906c-25.773437 0-46.738281 20.964843-46.738281 46.738281zm0 0" fill="#3a312a"/><path d="m223.90625 403.839844v45.09375h-220.441406v-45.09375c0-27.472656 22.269531-49.738282 49.738281-49.738282h9.871094l-.203125.152344 34.179687 45.332032 17.636719-13.289063 17.640625 13.289063 34.183594-45.332032-.203125-.152344h7.859375c27.472656 0 49.738281 22.265626 49.738281 49.738282zm0 0" fill="#f16c7a"/><path d="m223.90625 451.929688h-220.441406c-1.65625 0-3-1.34375-3-3v-45.089844c0-29.082032 23.660156-52.738282 52.738281-52.738282h9.871094c1.296875 0 2.445312.832032 2.851562 2.066407.023438.082031.046875.164062.066407.246093l31.648437 41.964844 15.242187-11.484375c1.070313-.800781 2.542969-.800781 3.613282 0l15.242187 11.484375 31.648438-41.964844c.019531-.082031.039062-.164062.066406-.246093.402344-1.234375 1.554687-2.066407 2.851563-2.066407h7.863281c29.078125 0 52.738281 23.65625 52.738281 52.738282v45.089844c0 1.660156-1.34375 3-3 3zm-217.441406-6h214.441406v-42.089844c0-25.773438-20.96875-46.738282-46.742188-46.738282h-6.042968l-33.394532 44.289063c-.996093 1.320313-2.878906 1.582031-4.203124.589844l-15.832032-11.929688-15.832031 11.929688c-1.320313.992187-3.203125.730469-4.203125-.589844l-33.394531-44.289063h-8.054688c-25.773437 0-46.738281 20.964844-46.738281 46.738282v42.089844zm0 0" fill="#3a312a"/><path d="m47.847656 230.816406c0 10.808594-8.761718 19.570313-19.570312 19.570313s-19.566406-8.761719-19.566406-19.570313 8.761718-19.570312 19.566406-19.570312c10.808594 0 19.570312 8.761718 19.570312 19.570312zm0 0" fill="#fce8cb" fill-rule="evenodd"/><path d="m28.277344 253.386719c-12.445313 0-22.566406-10.121094-22.566406-22.570313 0-12.445312 10.125-22.566406 22.566406-22.566406 12.449218 0 22.574218 10.121094 22.574218 22.566406-.003906 12.445313-10.125 22.570313-22.574218 22.570313zm0-39.136719c-9.132813 0-16.566406 7.433594-16.566406 16.566406 0 9.136719 7.433593 16.570313 16.566406 16.570313 9.140625 0 16.574218-7.433594 16.574218-16.570313-.003906-9.136718-7.4375-16.566406-16.574218-16.566406zm0 0" fill="#3a312a"/><path d="m218.667969 230.816406c0 10.808594-8.761719 19.570313-19.570313 19.570313s-19.570312-8.761719-19.570312-19.570313 8.761718-19.570312 19.570312-19.570312 19.570313 8.761718 19.570313 19.570312zm0 0" fill="#fce8cb" fill-rule="evenodd"/><path d="m199.097656 253.386719c-12.445312 0-22.570312-10.121094-22.570312-22.570313 0-12.445312 10.125-22.566406 22.570312-22.566406 12.449219 0 22.570313 10.121094 22.570313 22.566406 0 12.445313-10.125 22.570313-22.570313 22.570313zm0-39.136719c-9.136718 0-16.570312 7.433594-16.570312 16.566406 0 9.136719 7.433594 16.570313 16.570312 16.570313 9.136719 0 16.570313-7.433594 16.570313-16.570313 0-9.136718-7.433594-16.566406-16.570313-16.566406zm0 0" fill="#3a312a"/><path d="m200.449219 221.316406c0 47.917969-46.148438 121.464844-86.761719 121.464844-38.765625 0-86.757812-73.546875-86.757812-121.464844 0-47.914062 38.84375-86.757812 86.757812-86.757812 47.917969 0 86.761719 38.84375 86.761719 86.757812zm0 0" fill="#fce8cb"/><path d="m113.6875 345.78125c-18.746094 0-41.320312-16.472656-60.382812-44.058594-18.121094-26.21875-29.375-57.03125-29.375-80.40625 0-49.492187 40.265624-89.757812 89.757812-89.757812 49.496094 0 89.761719 40.265625 89.761719 89.757812 0 23.636719-10.984375 54.445313-28.671875 80.390625-19.089844 28.007813-41.355469 44.074219-61.089844 44.074219zm0-208.222656c-46.183594 0-83.757812 37.574218-83.757812 83.757812 0 22.222656 10.847656 51.722656 28.308593 76.996094 17.941407 25.964844 38.671875 41.46875 55.449219 41.46875 17.460938 0 38.441406-15.496094 56.132812-41.457031 17.042969-25.003907 27.628907-54.511719 27.628907-77.007813 0-46.183594-37.574219-83.757812-83.761719-83.757812zm0 0" fill="#3a312a"/><path d="m91.523438 220.339844c0 4.675781-3.789063 8.464844-8.464844 8.464844-4.675782 0-8.46875-3.789063-8.46875-8.464844 0-4.675782 3.792968-8.46875 8.46875-8.46875 4.675781 0 8.464844 3.792968 8.464844 8.46875zm0 0" fill="#3a312a"/><path d="m152.789062 220.339844c0 4.675781-3.792968 8.464844-8.46875 8.464844-4.679687 0-8.46875-3.789063-8.46875-8.464844 0-4.675782 3.792969-8.46875 8.46875-8.46875 4.675782 0 8.46875 3.792968 8.46875 8.46875zm0 0" fill="#3a312a"/><path d="m80.722656 245.515625c0 6.019531-6.535156 10.90625-14.589844 10.90625-8.054687 0-14.585937-4.882813-14.585937-10.90625s6.53125-10.90625 14.585937-10.90625c8.054688 0 14.589844 4.882813 14.589844 10.90625zm0 0" fill="#f5978a"/><path d="m175.832031 245.515625c0 6.019531-6.53125 10.90625-14.589843 10.90625-8.054688 0-14.585938-4.882813-14.585938-10.90625s6.53125-10.90625 14.585938-10.90625c8.058593 0 14.589843 4.882813 14.589843 10.90625zm0 0" fill="#f5978a"/><path d="m62.894531 354.238281 17.714844-13.351562 34.171875 45.339843-17.714844 13.347657zm0 0" fill="#87796f"/><path d="m97.050781 402.585938c-.140625 0-.28125-.011719-.417969-.03125-.789062-.113282-1.5-.53125-1.980468-1.167969l-34.167969-45.339844c-.996094-1.320313-.734375-3.203125.589844-4.199219l17.710937-13.351562c.636719-.476563 1.4375-.6875 2.222656-.574219.789063.113281 1.5.53125 1.976563 1.167969l34.171875 45.339844c.996094 1.320312.734375 3.203124-.589844 4.199218l-17.714844 13.351563c-.519531.394531-1.15625.605469-1.800781.605469zm-29.972656-47.75 30.558594 40.546874 12.921875-9.738281-30.558594-40.546875zm0 0" fill="#3a312a"/><path d="m132.339844 399.574219-17.710938-13.347657 34.171875-45.339843 17.714844 13.347656zm0 0" fill="#87796f"/><path d="m132.328125 402.585938c-.648437 0-1.28125-.210938-1.804687-.605469l-17.710938-13.351563c-1.324219-.996094-1.585938-2.875-.589844-4.199218l34.167969-45.339844c.480469-.636719 1.191406-1.054688 1.980469-1.167969.785156-.113281 1.585937.097656 2.21875.574219l17.714844 13.351562c1.324218.996094 1.585937 2.875.589843 4.199219l-34.171875 45.339844c-.476562.636719-1.191406 1.054687-1.976562 1.167969-.136719.019531-.277344.03125-.417969.03125zm-13.507813-16.941407 12.917969 9.738281 30.5625-40.546874-12.921875-9.738282zm0 0" fill="#3a312a"/><path d="m44.757812 451.929688c-1.660156 0-3-1.34375-3-3v-35.625c0-1.65625 1.339844-3 3-3 1.65625 0 3 1.34375 3 3v35.625c0 1.660156-1.34375 3-3 3zm0 0" fill="#3a312a"/><path d="m184.621094 451.929688c-1.65625 0-3-1.34375-3-3v-35.625c0-1.65625 1.34375-3 3-3s3 1.34375 3 3v35.625c0 1.660156-1.34375 3-3 3zm0 0" fill="#3a312a"/><path d="m113.683594 294.691406c-12.449219 0-21.425782-5.59375-26.679688-16.632812-.710937-1.496094-.078125-3.285156 1.417969-3.996094 1.496094-.707031 3.289063-.078125 4 1.417969 4.230469 8.890625 11.1875 13.210937 21.261719 13.210937 12.898437 0 19.484375-8.484375 21.164062-12.972656.582032-1.550781 2.316406-2.339844 3.863282-1.757812 1.550781.582031 2.339843 2.3125 1.757812 3.863281-3.042969 8.125-12.722656 16.867187-26.785156 16.867187zm0 0" fill="#3a312a"/><path d="m212.425781 189.519531c0 8.886719-1.15625 17.507813-3.339843 25.707031-22.222657-10.710937-43.359376-23.863281-62.945313-38.730468-5.742187-4.355469-11.398437-8.890625-16.800781-13.695313-6.628906-5.820312-12.902344-12.085937-18.554688-18.878906-12.304687-14.816406-21.335937-31.835937-28.976562-49.558594 9.648437-3.125 19.945312-4.804687 30.636718-4.804687 28.601563 0 54.398438 12.011718 72.628907 31.273437 16.964843 17.902344 27.351562 42.074219 27.351562 68.6875zm0 0" fill="#87796f"/><path d="m209.082031 218.226562c-.445312 0-.890625-.097656-1.300781-.292968-21.859375-10.542969-43.207031-23.675782-63.457031-39.050782-6.476563-4.910156-12.03125-9.4375-16.980469-13.84375-7.082031-6.207031-13.433594-12.675781-18.867188-19.199218-10.988281-13.230469-20.335937-29.210938-29.425781-50.289063-.335937-.777343-.328125-1.65625.019531-2.425781.347657-.769531 1.003907-1.355469 1.808594-1.617188 10.144532-3.289062 20.765625-4.953124 31.566406-4.953124 28.578126 0 55.144532 11.441406 74.804688 32.210937 18.167969 19.175781 28.175781 44.300781 28.175781 70.75 0 9-1.160156 17.910156-3.445312 26.484375-.230469.863281-.832031 1.578125-1.644531 1.953125-.398438.183594-.824219.273437-1.253907.273437zm-123.175781-121.976562c8.429688 19.023438 17.113281 33.625 27.1875 45.753906 5.230469 6.28125 11.363281 12.519532 18.226562 18.539063 4.84375 4.316406 10.28125 8.746093 16.636719 13.5625 18.898438 14.347656 38.765625 26.714843 59.105469 36.792969 1.570312-6.960938 2.367188-14.136719 2.367188-21.378907 0-24.90625-9.421876-48.570312-26.53125-66.625-18.515626-19.5625-43.539063-30.335937-70.449219-30.335937-9.050781-.003906-17.964844 1.238281-26.542969 3.691406zm0 0" fill="#3a312a"/><path d="m185.074219 120.832031c-17.199219 15.679688-102.390625 58.085938-168.851563 95.839844-2.441406-8.636719-3.738281-17.742187-3.738281-27.152344 0-44.515625 29.105469-82.242187 69.320313-95.15625 9.648437-3.128906 19.945312-4.808593 30.640624-4.808593 28.601563 0 54.398438 12.015624 72.628907 31.277343zm0 0" fill="#87796f"/><path d="m16.226562 219.675781c-.386718 0-.773437-.074219-1.140624-.226562-.851563-.347657-1.496094-1.070313-1.746094-1.957031-2.558594-9.050782-3.855469-18.460938-3.855469-27.96875 0-44.90625 28.695313-84.292969 71.40625-98.011719 10.136719-3.289063 20.757813-4.953125 31.554687-4.953125 28.578126 0 55.144532 11.441406 74.808594 32.210937.554688.585938.847656 1.367188.820313 2.171875-.03125.804688-.382813 1.5625-.976563 2.105469-11.375 10.375-50.40625 31.414063-95.597656 55.773437-24.710938 13.324219-50.269531 27.101563-73.792969 40.464844-.457031.257813-.96875.390625-1.480469.390625zm96.21875-127.121093c-10.167968 0-20.167968 1.570312-29.714843 4.660156-40.222657 12.921875-67.246094 50.015625-67.246094 92.304687 0 7.660157.894531 15.25 2.660156 22.617188 22.625-12.789063 46.949219-25.898438 70.507813-38.597657 40.277344-21.714843 78.460937-42.296874 92.015625-52.925781-18.273438-18.117187-42.375-28.058593-68.222657-28.058593zm0 0" fill="#3a312a"/><path d="m426.523438 311.234375h-30c-9.097657-12.617187-21.699219-22.738281-36.816407-28.9375-1.121093-.460937-1.863281-1.5625-1.863281-2.78125v-14.019531h5.0625c1.640625 0 3-1.339844 3-3s-1.359375-3-3-3h-5.0625v-35.101563h30v55.121094c0 1.21875.742188 2.320313 1.863281 2.78125 15.117188 6.199219 27.71875 16.320313 36.816407 28.9375zm0 0" fill="#decaad"/><path d="m406.246094 205.855469c0 6.921875-5.640625 12.539062-12.5625 12.539062h-30c6.921875 0 12.5625-5.617187 12.5625-12.539062s-5.640625-12.5625-12.5625-12.5625h30c6.921875 0 12.5625 5.640625 12.5625 12.5625zm0 0" fill="#695b51"/><path d="m220.90625 403.835938v42.101562h-30v-42.101562c0-18.460938-10.761719-34.441407-26.320312-42.039063l3.539062-4.699219h6.039062c25.78125-.003906 46.742188 20.976563 46.742188 46.738282zm0 0" fill="#d34e5c"/><path d="m342.699219 316.230469h-57.6875c-8.507813 13.535156-13.429688 29.550781-13.429688 46.722656 0 48.585937 39.386719 87.972656 87.976563 87.972656 48.585937 0 87.972656-39.386719 87.972656-87.972656 0-17.171875-4.925781-33.1875-13.4375-46.722656zm0 0" fill="#8ac5dc"/><path d="m357.558594 451.925781c-50.164063 0-90.972656-40.808593-90.972656-90.972656 0-17.152344 4.800781-33.863281 13.890624-48.316406.546876-.875 1.507813-1.40625 2.539063-1.40625h57.683594c1.65625 0 3 1.34375 3 3s-1.34375 3-3 3h-56.007813c-7.925781 13.171875-12.105468 28.253906-12.105468 43.722656 0 46.855469 38.117187 84.972656 84.972656 84.972656 46.855468 0 84.972656-38.121093 84.972656-84.972656 0-15.46875-4.183594-30.546875-12.113281-43.722656h-64.1875c-1.65625 0-3-1.34375-3-3s1.34375-3 3-3h65.863281c1.035156 0 1.992188.53125 2.542969 1.402343 9.089843 14.464844 13.894531 31.167969 13.894531 48.320313 0 50.160156-40.808594 90.972656-90.972656 90.972656zm0 0" fill="#3a312a"/><path d="m442.523438 360.957031c0 46.859375-38.117188 84.960938-84.957032 84.960938-5.101562 0-10.121094-.460938-14.980468-1.320313 39.699218-7.121094 69.9375-41.902344 69.9375-83.640625 0-15.480469-4.179688-30.5625-12.097657-43.722656h30c7.917969 13.160156 12.097657 28.238281 12.097657 43.722656zm0 0" fill="#6ca8bf"/><path d="m76.382812 253.988281c-18.820312 0-34.128906-15.308593-34.128906-34.128906s15.3125-34.128906 34.128906-34.128906c18.816407 0 34.128907 15.308593 34.128907 34.128906 0 18.816406-15.308594 34.128906-34.128907 34.128906zm0-62.261719c-15.511718 0-28.128906 12.621094-28.128906 28.128907 0 15.511719 12.617188 28.128906 28.128906 28.128906 15.511719 0 28.128907-12.617187 28.128907-28.128906 0-15.507813-12.617188-28.128907-28.128907-28.128907zm0 0" fill="#3a312a"/><path d="m154.125 253.988281c-18.820312 0-34.132812-15.308593-34.132812-34.128906s15.3125-34.128906 34.132812-34.128906c18.816406 0 34.128906 15.308593 34.128906 34.128906 0 18.816406-15.3125 34.128906-34.128906 34.128906zm0-62.261719c-15.511719 0-28.132812 12.621094-28.132812 28.128907 0 15.511719 12.621093 28.128906 28.132812 28.128906 15.507812 0 28.128906-12.617187 28.128906-28.128906 0-15.507813-12.621094-28.128907-28.128906-28.128907zm0 0" fill="#3a312a"/><path d="m122.992188 222.792969h-15.480469c-1.65625 0-3-1.34375-3-3s1.34375-3 3-3h15.480469c1.660156 0 3 1.34375 3 3s-1.339844 3-3 3zm0 0" fill="#3a312a"/><path d="m46.085938 215.867188c-.101563 0-.203126-.003907-.304688-.015626l-17.96875-1.8125c-1.648438-.164062-2.847656-1.636718-2.683594-3.285156.167969-1.648437 1.644532-2.871094 3.285156-2.683594l17.96875 1.8125c1.648438.164063 2.851563 1.636719 2.683594 3.285157-.15625 1.546875-1.460937 2.699219-2.980468 2.699219zm0 0" fill="#3a312a"/><path d="m184.441406 215.867188c-1.496094 0-2.792968-1.121094-2.972656-2.644532-.195312-1.644531.976562-3.136718 2.625-3.332031l15.976562-1.902344c1.640626-.207031 3.140626.976563 3.332032 2.625.195312 1.644531-.976563 3.136719-2.625 3.332031l-15.976563 1.902344c-.121093.015625-.238281.019532-.359375.019532zm0 0" fill="#3a312a"/></svg>