<svg height="452pt" viewBox="0 0 452.334 452" width="452pt" xmlns="http://www.w3.org/2000/svg"><path d="m277.621094 3.167969h-250.585938c-12.957031 0-23.460937 10.503906-23.460937 23.460937 0 12.953125 10.503906 23.460938 23.460937 23.460938h398.839844c12.957031 0 23.460938-10.503906 23.460938-23.460938 0-12.960937-10.507813-23.460937-23.460938-23.460937zm0 0" fill="#d7e057"/><path d="m425.875 53.089844h-398.839844c-14.589844 0-26.460937-11.871094-26.460937-26.460938 0-14.59375 11.871093-26.460937 26.460937-26.460937h250.589844c1.65625 0 3 1.34375 3 3s-1.34375 3-3 3h-250.589844c-11.28125 0-20.460937 9.179687-20.460937 20.460937s9.179687 20.460938 20.460937 20.460938h398.839844c11.28125 0 20.460938-9.179688 20.460938-20.460938 0-11.285156-9.179688-20.460937-20.460938-20.460937h-119.921875c-1.65625 0-3-1.34375-3-3s1.34375-3 3-3h119.921875c14.589844 0 26.460938 11.871093 26.460938 26.460937s-11.871094 26.460938-26.460938 26.460938zm0 0" fill="#3a312a"/><path d="m214.714844 331.628906h23.480468v105.558594c0 6.480469-5.261718 11.738281-11.742187 11.738281s-11.738281-5.257812-11.738281-11.738281zm0 0" fill="#87796f"/><path d="m226.457031 451.925781c-8.128906 0-14.742187-6.613281-14.742187-14.738281v-105.558594c0-1.65625 1.34375-3 3-3h23.480468c1.660157 0 3 1.34375 3 3v105.558594c0 8.128906-6.613281 14.738281-14.738281 14.738281zm-8.742187-117.296875v102.558594c0 4.820312 3.921875 8.738281 8.738281 8.738281 4.820313 0 8.742187-3.917969 8.742187-8.738281v-102.558594zm0 0" fill="#3a312a"/><path d="m138.480469 395.835938-17.265625 36.332031c-2.777344 5.839843-.300782 12.839843 5.5625 15.621093 5.839844 2.78125 12.839844.300782 15.617187-5.558593l52.5625-110.601563h-25.960937l-17.09375 35.96875zm0 0" fill="#87796f"/><path d="m131.796875 451.929688c-2.160156 0-4.308594-.480469-6.3125-1.433594-3.550781-1.6875-6.238281-4.65625-7.554687-8.363282-1.320313-3.710937-1.113282-7.707031.578124-11.253906l17.265626-36.332031c.707031-1.5 2.5-2.136719 3.996093-1.425781 1.496094.710937 2.132813 2.5 1.421875 3.996094l-17.265625 36.335937c-1 2.105469-1.125 4.472656-.339843 6.667969.78125 2.195312 2.371093 3.953125 4.476562 4.953125 2.101562 1.003906 4.472656 1.125 6.667969.34375 2.195312-.78125 3.957031-2.367188 4.957031-4.476563l50.523438-106.3125h-19.320313l-16.277344 34.257813c-.714843 1.496093-2.503906 2.125-4 1.421875-1.496093-.710938-2.132812-2.5-1.421875-3.996094l17.09375-35.972656c.496094-1.042969 1.554688-1.710938 2.710938-1.710938h25.960937c1.027344 0 1.984375.527344 2.535157 1.394532.550781.871093.617187 1.960937.171874 2.890624l-52.558593 110.597657c-1.683594 3.554687-4.65625 6.242187-8.367188 7.558593-1.613281.578126-3.28125.859376-4.941406.859376zm0 0" fill="#3a312a"/><path d="m327.515625 447.785156c-5.839844 2.78125-12.839844.300782-15.621094-5.558594l-52.558593-110.597656h25.957031l47.78125 100.539063c2.78125 5.839843.300781 12.839843-5.558594 15.617187zm0 0" fill="#87796f"/><path d="m322.492188 451.929688c-1.664063 0-3.332032-.285157-4.945313-.859376-3.707031-1.316406-6.675781-4.003906-8.363281-7.558593l-52.558594-110.597657c-.441406-.929687-.375-2.019531.175781-2.890624.550781-.871094 1.503907-1.394532 2.535157-1.394532h25.960937c1.15625 0 2.210937.664063 2.710937 1.710938l47.777344 100.542968c1.691406 3.546876 1.894532 7.546876.574219 11.253907-1.316406 3.707031-4 6.675781-7.558594 8.363281-2.007812.949219-4.152343 1.429688-6.308593 1.429688zm-58.410157-117.300782 50.523438 106.308594c1 2.109375 2.757812 3.703125 4.953125 4.480469 2.195312.78125 4.5625.660156 6.664062-.339844.003906 0 .003906-.003906.003906-.003906 2.109376-.996094 3.699219-2.757813 4.480469-4.953125.78125-2.195313.660157-4.5625-.339843-6.667969l-46.96875-98.828125h-19.316407zm0 0" fill="#3a312a"/><path d="m41.613281 170.703125v113.996094h369.683594v-234.609375h-369.683594zm0 0" fill="#fce8cb"/><path d="m411.296875 287.699219h-369.683594c-1.660156 0-3-1.34375-3-3v-234.609375c0-1.65625 1.339844-3 3-3h369.6875c1.65625 0 3 1.34375 3 3v234.609375c-.003906 1.65625-1.34375 3-3.003906 3zm-366.683594-6h363.6875v-228.609375h-363.6875zm0 0" fill="#3a312a"/><path d="m362.070312 331.621094h63.804688c12.957031 0 23.460938-10.503906 23.460938-23.457032 0-12.960937-10.507813-23.460937-23.460938-23.460937h-397.457031c-12.957031 0-23.460938 10.5-23.460938 23.460937 0 12.957032 10.503907 23.457032 23.460938 23.457032zm0 0" fill="#d7e057"/><path d="m425.875 334.621094h-63.804688c-1.660156 0-3-1.34375-3-3 0-1.652344 1.339844-3 3-3h63.804688c11.28125 0 20.460938-9.179688 20.460938-20.460938s-9.179688-20.460937-20.460938-20.460937h-397.460938c-11.28125 0-20.457031 9.179687-20.457031 20.460937s9.175781 20.460938 20.457031 20.460938h303.425782c1.65625 0 3 1.347656 3 3 0 1.65625-1.34375 3-3 3h-303.425782c-14.589843 0-26.457031-11.871094-26.457031-26.460938s11.867188-26.460937 26.457031-26.460937h397.460938c14.589844 0 26.460938 11.871093 26.460938 26.460937s-11.871094 26.460938-26.460938 26.460938zm0 0" fill="#3a312a"/><path d="m57.484375 424.265625v11.554687c0 6.882813-5.582031 12.464844-12.480469 12.464844h-2.554687c-6.882813 0-12.464844-5.582031-12.464844-12.464844v-11.554687zm0 0" fill="#87796f"/><path d="m45.003906 451.285156h-2.554687c-8.527344 0-15.464844-6.9375-15.464844-15.464844v-11.554687c0-1.65625 1.339844-3 3-3h27.503906c1.65625 0 3 1.34375 3 3v11.554687c-.003906 8.527344-6.949219 15.464844-15.484375 15.464844zm-12.019531-24.019531v8.554687c0 5.21875 4.246094 9.464844 9.464844 9.464844h2.554687c5.226563 0 9.480469-4.246094 9.480469-9.464844v-8.554687zm0 0" fill="#3a312a"/><path d="m84.972656 424.265625v11.554687c0 6.882813-5.582031 12.464844-12.464844 12.464844h-2.554687c-6.886719 0-12.46875-5.582031-12.46875-12.464844v-11.554687zm0 0" fill="#87796f"/><path d="m72.507812 451.285156h-2.554687c-8.527344 0-15.46875-6.9375-15.46875-15.464844v-11.554687c0-1.65625 1.34375-3 3-3h27.488281c1.65625 0 3 1.34375 3 3v11.554687c0 8.527344-6.9375 15.464844-15.464844 15.464844zm-12.023437-24.019531v8.554687c0 5.21875 4.246094 9.464844 9.46875 9.464844h2.554687c5.21875 0 9.464844-4.246094 9.464844-9.464844v-8.554687zm0 0" fill="#3a312a"/><path d="m22.960938 316.769531h69.691406v107.503907h-69.691406zm0 0" fill="#8ac6dd"/><path d="m92.652344 427.273438h-69.691406c-1.660157 0-3-1.34375-3-3v-107.507813c0-1.65625 1.339843-3 3-3h69.691406c1.65625 0 3 1.34375 3 3v107.507813c0 1.65625-1.34375 3-3 3zm-66.691406-6h63.691406v-101.507813h-63.691406zm0 0" fill="#3a312a"/><path d="m57.476562 427.273438c-1.660156 0-3-1.34375-3-3v-107.507813c0-1.65625 1.339844-3 3-3 1.65625 0 3 1.34375 3 3v107.507813c0 1.65625-1.34375 3-3 3zm0 0" fill="#3a312a"/><path d="m112.589844 245.882812v70.894532h-109.585938v-70.894532c0-13.652343 11.082032-24.734374 24.734375-24.734374h16.332031v-10.289063c4.601563 3.308594 9.316407 5.269531 13.785157 5.269531 4.523437 0 9.179687-1.824218 13.6875-4.945312v9.960937h16.347656c13.632813.003907 24.699219 11.085938 24.699219 24.738281zm0 0" fill="#fce8cb"/><path d="m112.589844 319.777344h-109.585938c-1.660156 0-2.99999975-1.34375-2.99999975-3v-70.894532c0-15.292968 12.44140575-27.734374 27.73046875-27.734374h13.332031v-7.289063c0-1.121094.632813-2.15625 1.632813-2.667969 1-.511718 2.203125-.425781 3.121093.234375 4.277344 3.074219 8.4375 4.703125 12.03125 4.703125 3.722657 0 7.753907-1.484375 11.984376-4.410156.914062-.636719 2.109374-.710938 3.097656-.195312.988281.523437 1.609375 1.542968 1.609375 2.660156v6.960937h13.347656c15.273437 0 27.699219 12.445313 27.699219 27.738281v70.894532c0 1.65625-1.34375 3-3 3zm-106.585938-6h103.585938v-67.894532c0-11.984374-9.734375-21.734374-21.699219-21.734374h-16.347656c-1.660157 0-3-1.34375-3-3v-4.710938c-7.257813 3.566406-14.046875 3.644531-21.472657-.199219v4.90625c0 1.65625-1.34375 3-3 3h-16.332031c-11.984375 0-21.734375 9.75-21.734375 21.738281zm0 0" fill="#3a312a"/><path d="m57.824219 237.105469.035156-.035157.046875.042969-.039062.039063zm0 0" fill="#87796f"/><path d="m57.855469 240.140625c-.582031 0-1.171875-.171875-1.683594-.523437-1.359375-.921876-1.773437-2.792969-.867187-4.164063.492187-.75 1.3125-1.261719 2.203124-1.355469.878907-.097656 1.792969.1875 2.433594.816406.570313.558594.917969 1.351563.921875 2.152344.003907.796875-.289062 1.59375-.851562 2.160156l-.035157.03125c-.578124.582032-1.347656.882813-2.121093.882813zm0 0" fill="#3a312a"/><path d="m112.597656 245.886719v70.890625h-109.597656v-70.890625c0-13.648438 11.085938-24.730469 24.730469-24.730469h4.40625l-.046875.03125 16.984375 22.546875 8.78125-6.59375 8.765625 6.59375 16.984375-22.546875-.050781-.03125h4.324218c13.652344 0 24.71875 11.082031 24.71875 24.730469zm0 0" fill="#87796f"/><g fill="#3a312a"><path d="m112.597656 319.773438h-109.597656c-1.65625 0-3-1.34375-3-3v-70.886719c0-15.292969 12.441406-27.730469 27.730469-27.730469h4.40625c1.167969 0 2.214843.671875 2.707031 1.703125l14.828125 19.675781 6.382813-4.792968c1.066406-.800782 2.535156-.800782 3.605468.003906l6.371094 4.789062 14.917969-19.800781c.511719-.953125 1.5-1.578125 2.609375-1.578125h4.324218c15.28125 0 27.714844 12.441406 27.714844 27.734375v70.886719c0 1.652344-1.34375 2.996094-3 2.996094zm-106.597656-6h103.597656v-67.886719c0-11.980469-9.742187-21.730469-21.714844-21.730469h-2.753906l-16.109375 21.378906c-1 1.324219-2.878906 1.59375-4.203125.59375l-6.960937-5.234375-6.976563 5.238281c-1.324218.996094-3.199218.726563-4.195312-.597656l-16.113282-21.378906h-2.835937c-11.980469 0-21.730469 9.75-21.730469 21.730469v67.886719zm0 0"/><path d="m22.960938 319.769531c-1.660157 0-3-1.34375-3-3v-66.179687c0-1.65625 1.339843-3 3-3 1.65625 0 3 1.34375 3 3v66.179687c0 1.65625-1.34375 3-3 3zm0 0"/><path d="m92.652344 319.769531c-1.660156 0-3-1.34375-3-3v-66.179687c0-1.65625 1.339844-3 3-3 1.65625 0 3 1.34375 3 3v66.179687c0 1.65625-1.34375 3-3 3zm0 0"/></g><path d="m102.628906 336.71875c-5.511718 0-9.976562-4.464844-9.976562-9.976562v-9.976563h19.953125v9.976563c0 5.511718-4.46875 9.976562-9.976563 9.976562zm0 0" fill="#fce8cb"/><path d="m102.628906 339.71875c-7.15625 0-12.976562-5.820312-12.976562-12.972656v-9.976563c0-1.65625 1.339844-3 3-3h19.953125c1.65625 0 3 1.34375 3 3v9.976563c0 7.152344-5.820313 12.972656-12.976563 12.972656zm-6.976562-19.953125v6.976563c0 3.847656 3.128906 6.976562 6.976562 6.976562 3.84375 0 6.976563-3.128906 6.976563-6.976562v-6.976563zm0 0" fill="#3a312a"/><path d="m69.140625 295.582031-11.375 12.945313-11.390625-12.945313 6.304688-40.867187h10.171874zm0 0" fill="#8ac6dd"/><path d="m57.765625 311.527344c-.863281 0-1.679687-.371094-2.25-1.015625l-11.390625-12.949219c-.589844-.667969-.847656-1.558594-.714844-2.441406l6.304688-40.867188c.226562-1.464844 1.484375-2.542968 2.964844-2.542968h10.171874c1.476563 0 2.738282 1.078124 2.960938 2.542968l6.289062 40.867188c.132813.878906-.125 1.773437-.710937 2.441406l-11.371094 12.945312c-.566406.652344-1.390625 1.019532-2.253906 1.019532zm-8.210937-16.871094 8.210937 9.332031 8.195313-9.332031-5.683594-36.941406h-5.023438zm0 0" fill="#3a312a"/><path d="m66.359375 237.097656-3.519531 17.617188h-10.152344l-3.4375-17.617188zm0 0" fill="#8ac6dd"/><path d="m62.839844 257.714844h-10.152344c-1.433594 0-2.667969-1.019532-2.945312-2.429688l-3.4375-17.613281c-.171876-.878906.058593-1.789063.628906-2.484375.570312-.691406 1.417968-1.089844 2.316406-1.089844h17.105469c.898437 0 1.75.402344 2.320312 1.097656.570313.695313.796875 1.609376.621094 2.488282l-3.519531 17.617187c-.277344 1.402344-1.507813 2.414063-2.9375 2.414063zm-7.679688-6h5.21875l2.320313-11.617188h-9.808594zm0 0" fill="#3a312a"/><path d="m25.015625 160.289062c0 5.390626-4.371094 9.761719-9.761719 9.761719s-9.761718-4.371093-9.761718-9.761719c0-5.386718 4.371093-9.757812 9.761718-9.757812s9.761719 4.371094 9.761719 9.757812zm0 0" fill="#fce8cb" fill-rule="evenodd"/><path d="m15.253906 173.050781c-7.039062 0-12.761718-5.722656-12.761718-12.761719 0-7.035156 5.726562-12.757812 12.761718-12.757812s12.757813 5.722656 12.757813 12.757812c0 7.039063-5.722657 12.761719-12.757813 12.761719zm0-19.519531c-3.726562 0-6.761718 3.035156-6.761718 6.757812 0 3.726563 3.035156 6.761719 6.761718 6.761719 3.726563 0 6.757813-3.035156 6.757813-6.761719 0-3.722656-3.03125-6.757812-6.757813-6.757812zm0 0" fill="#3a312a"/><path d="m110.199219 160.289062c0 5.390626-4.371094 9.761719-9.761719 9.761719s-9.757812-4.371093-9.757812-9.761719c0-5.386718 4.367187-9.757812 9.757812-9.757812s9.761719 4.371094 9.761719 9.757812zm0 0" fill="#fce8cb" fill-rule="evenodd"/><path d="m100.4375 173.050781c-7.035156 0-12.757812-5.722656-12.757812-12.761719 0-7.035156 5.722656-12.757812 12.757812-12.757812s12.761719 5.722656 12.761719 12.757812c0 7.039063-5.726563 12.761719-12.761719 12.761719zm0-19.519531c-3.726562 0-6.757812 3.035156-6.757812 6.757812 0 3.726563 3.03125 6.761719 6.757812 6.761719s6.761719-3.035156 6.761719-6.761719c0-3.722656-3.035157-6.757812-6.761719-6.757812zm0 0" fill="#3a312a"/><path d="m101.113281 155.554688c0 23.894531-23.011719 60.574218-43.265625 60.574218-19.332031 0-43.269531-36.679687-43.269531-60.574218 0-23.894532 19.371094-43.265626 43.269531-43.265626 23.894532 0 43.265625 19.371094 43.265625 43.265626zm0 0" fill="#fce8cb"/><path d="m57.847656 219.128906c-21.453125 0-46.269531-38.472656-46.269531-63.574218 0-25.511719 20.757813-46.265626 46.269531-46.265626 25.507813 0 46.265625 20.753907 46.265625 46.265626 0 25.679687-24.375 63.574218-46.265625 63.574218zm0-103.839844c-22.203125 0-40.269531 18.0625-40.269531 40.265626 0 23.675781 23.710937 57.574218 40.269531 57.574218 18.277344 0 40.265625-35.363281 40.265625-57.574218 0-22.203126-18.066406-40.265626-40.265625-40.265626zm0 0" fill="#3a312a"/><path d="m58.347656 102.738281c-24.734375 0-44.785156 19.167969-44.785156 42.816407 0 2.5.453125 4.367187 1.296875 6.695312.394531 1.097656 6.808594-2.410156 7.355469-2.796875 2.730468-1.921875 4.960937-4.527344 6.628906-7.40625.691406-1.199219 1.265625-2.414063 1.726562-3.636719 1.476563-3.890625 5.488282-14.710937 9.5625-13.859375 5.460938 1.136719 11.648438 1.78125 18.214844 1.78125s12.757813-.644531 18.214844-1.78125c4.074219-.851562 8.085938 9.972657 9.558594 13.859375.464844 1.222656 1.039062 2.4375 1.730468 3.636719 2.753907 4.765625 7.40625 9.300781 13.066407 10.125.015625-.273437.359375-.363281.617187-.457031 1.855469-.675782 1.59375-4.679688 1.59375-6.164063-.003906-23.644531-20.050781-42.8125-44.78125-42.8125zm0 0" fill="#87796f"/><path d="m15.195312 155.433594c-.375 0-.722656-.042969-1.03125-.140625-1.003906-.3125-1.777343-1.050781-2.128906-2.023438-.882812-2.449219-1.472656-4.699219-1.472656-7.714843 0-25.261719 21.433594-45.8125 47.785156-45.8125 26.34375 0 47.78125 20.546874 47.78125 45.8125l.003906.457031c.03125 2.242187.097657 6.820312-3.167968 8.355469-.046875.046874-.09375.089843-.148438.128906-.652344.535156-1.5.773437-2.332031.648437-5.835937-.847656-11.527344-5.183593-15.234375-11.59375-.757812-1.316406-1.40625-2.6875-1.933594-4.070312l-.089844-.238281c-3.621093-9.558594-5.601562-11.375-6.261718-11.710938-5.808594 1.199219-12.074219 1.800781-18.617188 1.800781-6.546875 0-12.8125-.605469-18.625-1.800781-.65625.339844-2.636718 2.152344-6.257812 11.710938l-.089844.238281c-.523438 1.378906-1.175781 2.75-1.933594 4.066406-1.972656 3.40625-4.566406 6.296875-7.5 8.363281-.058594.039063-5.429687 3.523438-8.746094 3.523438zm61.882813-33.9375c5.105469 0 8.664063 7.453125 11.761719 15.621094l.085937.234374c.414063 1.085938.925781 2.164063 1.523438 3.203126 2.480469 4.289062 5.976562 7.324218 9.550781 8.363281.109375-.570313.152344-1.511719.132812-2.816407l-.007812-.542968c0-21.957032-18.742188-39.8125-41.78125-39.8125s-41.78125 17.859375-41.78125 39.8125c0 1.21875.128906 2.25.371094 3.265625 1.363281-.609375 3.015625-1.476563 3.601562-1.851563 2.179688-1.535156 4.171875-3.769531 5.707032-6.421875.597656-1.035156 1.109374-2.109375 1.519531-3.195312l.089843-.238281c3.316407-8.757813 7.195313-16.6875 12.886719-15.5 5.46875 1.140624 11.390625 1.71875 17.605469 1.71875 6.125 0 12.214844-.59375 17.605469-1.71875.386719-.085938.761719-.121094 1.128906-.121094zm0 0" fill="#3a312a"/><path d="m17.132812 106.9375c3.417969 5.386719 7.390626 10.429688 12.050782 14.785156 5.652344 5.285156 12.0625 9.625 18.800781 11.542969 17.089844 4.859375 47.339844-1.203125 47.339844-25.800781 0-15.730469-13.183594-34.738282-37.789063-20.265625-30.5 17.941406-48.203125-16.546875-48.203125-.816407 0 1.507813.277344 3.34375.726563 5.253907 1.078125 4.578125 3.015625 8.910156 5.535156 12.878906zm0 0" fill="#87796f"/><path d="m59.914062 137.796875c-4.617187 0-9.011718-.582031-12.75-1.644531-6.621093-1.882813-13.359374-6-20.03125-12.238282-4.535156-4.242187-8.753906-9.414062-12.53125-15.367187l-1.539062-2.417969c-2.820312-4.449218-4.808594-9.09375-5.917969-13.804687-.535156-2.273438-.808593-4.273438-.808593-5.941407 0-2.382812.308593-5.292968 2.707031-6.648437 2.808593-1.589844 5.785156.195313 9.90625 2.667969 8.054687 4.824218 20.214843 12.121094 37.066406 2.210937 13.699219-8.058593 23.292969-5.902343 28.929687-2.683593 8.128907 4.648437 13.378907 14.671874 13.378907 25.535156 0 9.0625-3.789063 16.714844-10.960938 22.132812-7.625 5.761719-18.003906 8.199219-27.449219 8.199219zm-47.554687-52.246094c-.015625.230469-.023437.507813-.023437.832031 0 1.1875.222656 2.769532.648437 4.5625.957031 4.0625 2.6875 8.085938 5.144531 11.964844l1.535156 2.414063v.003906c3.507813 5.527344 7.398438 10.304687 11.566407 14.203125 5.96875 5.578125 11.882812 9.230469 17.578125 10.851562 9.710937 2.757813 25.253906 1.746094 34.9375-5.570312 5.695312-4.300781 8.578125-10.136719 8.578125-17.347656 0-7.167969-3.203125-16.230469-10.359375-20.324219-6.105469-3.496094-14.027344-2.578125-22.90625 2.644531-19.921875 11.71875-35.0625 2.640625-43.195313-2.238281-1.167969-.703125-2.527343-1.519531-3.503906-1.996094zm0 0" fill="#3a312a"/><path d="m46.757812 155.066406c0 2.332032-1.890624 4.21875-4.222656 4.21875-2.332031 0-4.222656-1.886718-4.222656-4.21875 0-2.332031 1.890625-4.222656 4.222656-4.222656 2.332032 0 4.222656 1.890625 4.222656 4.222656zm0 0" fill="#3a312a"/><path d="m77.308594 155.066406c0 2.332032-1.890625 4.21875-4.222656 4.21875-2.332032 0-4.222657-1.886718-4.222657-4.21875 0-2.332031 1.890625-4.222656 4.222657-4.222656 2.332031 0 4.222656 1.890625 4.222656 4.222656zm0 0" fill="#3a312a"/><path d="m41.371094 167.621094c0 3.003906-3.257813 5.4375-7.273438 5.4375-4.019531 0-7.277344-2.433594-7.277344-5.4375s3.257813-5.4375 7.277344-5.4375c4.015625 0 7.273438 2.433594 7.273438 5.4375zm0 0" fill="#f5978a"/><path d="m88.800781 167.621094c0 3.003906-3.257812 5.4375-7.273437 5.4375-4.019532 0-7.273438-2.433594-7.273438-5.4375s3.253906-5.4375 7.273438-5.4375c4.015625 0 7.273437 2.433594 7.273437 5.4375zm0 0" fill="#f5978a"/><path d="m57.757812 192.855469c-6.742187 0-11.8125-3.164063-14.664062-9.152344-.710938-1.496094-.074219-3.285156 1.417969-4 1.5-.707031 3.285156-.074219 4 1.421875 1.863281 3.910156 4.796875 5.730469 9.246093 5.730469 5.199219 0 8.316407-3.285157 9.144532-5.496094.582031-1.550781 2.308594-2.34375 3.863281-1.753906 1.550781.578125 2.339844 2.308593 1.757813 3.863281-1.695313 4.519531-7.039063 9.386719-14.765626 9.386719zm0 0" fill="#3a312a"/><path d="m32.097656 221.191406 8.804688-6.636718 16.988281 22.539062-8.804687 6.636719zm0 0" fill="#d7e057"/><path d="m49.078125 246.734375c-.910156 0-1.808594-.410156-2.398437-1.195313l-16.988282-22.539062c-.480468-.636719-.6875-1.4375-.578125-2.226562.109375-.785157.53125-1.496094 1.164063-1.976563l8.808594-6.636719c1.320312-.992187 3.199218-.730468 4.199218.59375l16.988282 22.542969c.996093 1.320313.734374 3.203125-.589844 4.199219l-8.808594 6.636718c-.535156.402344-1.167969.601563-1.796875.601563zm-12.789063-24.953125 13.375 17.75 4.015626-3.023438-13.375-17.75zm0 0" fill="#3a312a"/><path d="m66.625 243.730469-8.804688-6.636719 16.988282-22.539062 8.808594 6.636718zm0 0" fill="#d7e057"/><path d="m66.617188 246.734375c-.648438 0-1.28125-.207031-1.808594-.601563l-8.804688-6.636718c-1.324218-1-1.585937-2.878906-.589844-4.203125l16.988282-22.542969c.476562-.636719 1.191406-1.054688 1.976562-1.164062.78125-.113282 1.589844.09375 2.222656.574218l8.804688 6.636719c1.324219.996094 1.585938 2.875.589844 4.199219l-16.984375 22.539062c-.480469.636719-1.191407 1.054688-1.980469 1.167969-.136719.023437-.277344.03125-.414062.03125zm-4.605469-10.226563 4.015625 3.023438 13.375-17.75-4.011719-3.023438zm0 0" fill="#3a312a"/><path d="m57.824219 237.105469.035156-.035157.046875.042969-.039062.039063zm0 0" fill="#d7e057"/><path d="m57.855469 240.140625c-.582031 0-1.171875-.171875-1.683594-.523437-1.359375-.921876-1.773437-2.792969-.867187-4.164063.492187-.75 1.3125-1.261719 2.203124-1.355469.878907-.097656 1.792969.1875 2.433594.816406.570313.558594.917969 1.351563.921875 2.152344.003907.796875-.289062 1.59375-.851562 2.160156l-.035157.03125c-.578124.582032-1.347656.882813-2.121093.882813zm0 0" fill="#3a312a"/><path d="m57.800781 237.109375.035157-.039063.046874.046876-.039062.035156zm0 0" fill="#d7e057"/><path d="m57.832031 240.125c-.578125 0-1.160156-.164062-1.660156-.507812-1.359375-.921876-1.773437-2.792969-.867187-4.164063.492187-.75 1.3125-1.261719 2.203124-1.355469.878907-.097656 1.792969.1875 2.433594.816406l.046875.046876c.574219.558593.898438 1.324218.902344 2.128906.003906.800781-.3125 1.570312-.878906 2.136718-.589844.589844-1.382813.898438-2.179688.898438zm0 0" fill="#3a312a"/><path d="m12.984375 336.71875c-5.507813 0-9.972656-4.464844-9.972656-9.976562v-9.976563h19.949219v9.976563c0 5.511718-4.46875 9.976562-9.976563 9.976562zm0 0" fill="#fce8cb"/><path d="m12.984375 339.71875c-7.15625 0-12.9726562-5.820312-12.9726562-12.972656v-9.976563c0-1.65625 1.3398432-3 3.0000002-3h19.949219c1.660156 0 3 1.34375 3 3v9.976563c0 7.152344-5.820313 12.972656-12.976563 12.972656zm-6.976563-19.953125v6.976563c0 3.847656 3.128907 6.976562 6.976563 6.976562 3.84375 0 6.976563-3.128906 6.976563-6.976562v-6.976563zm0 0" fill="#3a312a"/><path d="m446.335938 26.628906c0 11.277344-9.183594 20.457032-20.460938 20.457032h-30c11.277344 0 20.460938-9.179688 20.460938-20.457032 0-11.28125-9.183594-20.460937-20.460938-20.460937h30c11.277344 0 20.460938 9.179687 20.460938 20.460937zm0 0" fill="#b9c239"/><path d="m378.292969 53.085938v228.621093h30v-228.621093zm0 0" fill="#decaad"/><path d="m446.335938 308.167969c0 11.277343-9.183594 20.460937-20.460938 20.460937h-30c11.277344 0 20.460938-9.183594 20.460938-20.460937 0-11.28125-9.183594-20.460938-20.460938-20.460938h30c11.277344 0 20.460938 9.179688 20.460938 20.460938zm0 0" fill="#b9c239"/><path d="m112.566406 229.566406h39.277344v27.222656h-39.277344zm0 0" fill="#f16c7a"/><path d="m151.84375 259.789062h-39.277344c-1.65625 0-3-1.34375-3-3v-27.222656c0-1.65625 1.34375-3 3-3h39.277344c1.660156 0 3 1.34375 3 3v27.222656c0 1.65625-1.34375 3-3 3zm-36.277344-6h33.277344v-21.222656h-33.277344zm0 0" fill="#3a312a"/><path d="m175.476562 203.714844h39.277344v53.074218h-39.277344zm0 0" fill="#d7e057"/><path d="m214.753906 259.789062h-39.277344c-1.660156 0-3-1.34375-3-3v-53.074218c0-1.65625 1.339844-3 3-3h39.277344c1.65625 0 3 1.34375 3 3v53.074218c0 1.65625-1.34375 3-3 3zm-36.277344-6h33.277344v-47.074218h-33.277344zm0 0" fill="#3a312a"/><path d="m238.382812 177.867188h39.277344v78.921874h-39.277344zm0 0" fill="#f16c7a"/><path d="m277.660156 259.789062h-39.277344c-1.65625 0-3-1.34375-3-3v-78.921874c0-1.65625 1.34375-3 3-3h39.277344c1.65625 0 3 1.34375 3 3v78.921874c0 1.65625-1.34375 3-3 3zm-36.277344-6h33.277344v-72.921874h-33.277344zm0 0" fill="#3a312a"/><path d="m301.292969 152.015625h39.273437v104.773437h-39.273437zm0 0" fill="#d7e057"/><path d="m340.566406 259.789062h-39.273437c-1.660157 0-3-1.34375-3-3v-104.773437c0-1.65625 1.339843-3 3-3h39.273437c1.660156 0 3 1.34375 3 3v104.773437c0 1.65625-1.339844 3-3 3zm-36.273437-6h33.273437v-98.773437h-33.273437zm0 0" fill="#3a312a"/><path d="m335.742188 90.96875-36.917969-11.992188c-3.5-1.136718-7.257813.777344-8.394531 4.277344-1.136719 3.5.78125 7.257813 4.277343 8.394532l21.558594 7-199.953125 102.386718c-3.273438 1.679688-4.570312 5.691406-2.890625 8.964844 1.179687 2.304688 3.511719 3.628906 5.933594 3.628906 1.023437 0 2.058593-.238281 3.03125-.734375l200.019531-102.425781-7.046875 21.695312c-1.136719 3.5.777344 7.257813 4.277344 8.394532.683593.21875 1.378906.328125 2.058593.328125 2.808594 0 5.421876-1.792969 6.335938-4.609375l11.992188-36.917969c1.132812-3.496094-.78125-7.253906-4.28125-8.390625zm0 0" fill="#8ac6dd"/><path d="m119.359375 216.628906c-3.648437 0-6.945313-2.015625-8.605469-5.261718-2.429687-4.738282-.546875-10.570313 4.195313-13l193.519531-99.097657-14.683594-4.769531c-5.066406-1.648438-7.847656-7.109375-6.207031-12.171875.800781-2.457031 2.503906-4.453125 4.800781-5.625 2.300782-1.171875 4.921875-1.375 7.375-.582031l36.917969 11.992187c5.066406 1.648438 7.851563 7.109375 6.207031 12.171875l-11.992187 36.925782c-1.296875 3.992187-4.992188 6.675781-9.1875 6.675781-1.015625 0-2.019531-.160157-2.988281-.476563-5.066407-1.644531-7.847657-7.101562-6.203126-12.167968l4.804688-14.792969-193.554688 99.117187c-1.359374.695313-2.882812 1.0625-4.398437 1.0625zm177.402344-134.980468c-.570313 0-1.132813.132812-1.65625.402343-.875.445313-1.519531 1.199219-1.820313 2.128907-.625 1.917968.429688 3.988281 2.347656 4.613281l21.558594 7.003906c1.152344.375 1.964844 1.402344 2.0625 2.613281.097656 1.207032-.542968 2.355469-1.621094 2.910156l-199.949218 102.386719c-1.796875.921875-2.507813 3.128907-1.589844 4.929688.894531 1.746093 3.152344 2.492187 4.925781 1.589843l200.019531-102.425781c1.078126-.558593 2.386719-.398437 3.3125.386719.925782.789062 1.28125 2.054688.910157 3.210938l-7.046875 21.695312c-.625 1.917969.429687 3.988281 2.347656 4.609375 1.917969.632813 4.003906-.46875 4.617188-2.351563l11.992187-36.917968c.621094-1.917969-.433594-3.988282-2.355469-4.613282l-36.917968-11.992187c-.371094-.117187-.757813-.179687-1.136719-.179687zm0 0" fill="#3a312a"/></svg>